<svg xmlns="http://www.w3.org/2000/svg" width="680" height="380" viewBox="0 0 680 380" font-family="Helvetica, Arial, sans-serif">
<title>Leika's reference pose for Center PWM: knee at 90 degrees, foot under the hip pivot</title>
<defs><marker id="arrow" viewBox="0 0 10 10" refX="8" refY="5" markerWidth="6" markerHeight="6" orient="auto-start-reverse"><path d="M2 1L8 5L2 9" fill="none" stroke="#BA7517" stroke-width="1.5" stroke-linecap="round" stroke-linejoin="round"/></marker></defs>
<rect x="60" y="40" width="300" height="34" rx="4" fill="#B4B2A9" stroke="#5F5E5A" stroke-width="1"/>
<text x="72" y="62" font-size="12" fill="#2C2C2A">tail</text>
<text x="348" y="62" font-size="12" fill="#2C2C2A" text-anchor="end">head</text>
<line x1="210" y1="84" x2="210" y2="300" stroke="#888780" stroke-width="1" stroke-dasharray="5 5"/>
<line x1="210" y1="84" x2="116" y2="178" stroke="#378ADD" stroke-width="9" stroke-linecap="round"/>
<line x1="116" y1="178" x2="214" y2="276" stroke="#1D9E75" stroke-width="9" stroke-linecap="round"/>
<path d="M130 164 L144 178 L130 192" fill="none" stroke="#BA7517" stroke-width="1.5"/>
<circle cx="210" cy="84" r="8" fill="#185FA5"/>
<circle cx="116" cy="178" r="7" fill="#0F6E56"/>
<circle cx="214" cy="280" r="6" fill="#5F5E5A"/>
<text x="226" y="96" font-size="12" fill="#888780">hip pivot (ch 1, 4, 7, 10)</text>
<text x="98" y="214" font-size="12" fill="#888780" text-anchor="end">knee 90°, points</text>
<text x="98" y="230" font-size="12" fill="#888780" text-anchor="end">to the tail (ch 2, 5, 8, 11)</text>
<text x="226" y="284" font-size="12" fill="#888780">foot under the hip pivot</text>
<text x="210" y="330" font-size="14" fill="#888780" text-anchor="middle" font-weight="bold">side view</text>
<rect x="450" y="40" width="160" height="34" rx="4" fill="#B4B2A9" stroke="#5F5E5A" stroke-width="1"/>
<line x1="490" y1="84" x2="490" y2="280" stroke="#378ADD" stroke-width="9" stroke-linecap="round"/>
<circle cx="490" cy="84" r="8" fill="#185FA5"/>
<line x1="570" y1="84" x2="570" y2="280" stroke="#378ADD" stroke-width="9" stroke-linecap="round"/>
<circle cx="570" cy="84" r="8" fill="#185FA5"/>
<text x="530" y="302" font-size="12" fill="#888780" text-anchor="middle">legs vertical, not splayed</text>
<text x="530" y="318" font-size="12" fill="#888780" text-anchor="middle">(shoulder: ch 0, 3, 6, 9)</text>
<text x="530" y="350" font-size="14" fill="#888780" text-anchor="middle" font-weight="bold">front view</text>
</svg>
